STARTFONT 2.1
COMMENT GFtoPK 2.3 output from METAFONT output 1994.05.19:0937
COMMENT identifier CMSY
COMMENT codingscheme TeX math symbols
COMMENT fontfacebyte
COMMENT Nr: 15335424
COMMENT Checksum 21222c9a
COMMENT 
COMMENT This file is made by pktobdf using the above specified pk file.
COMMENT 
FONT -metafont-cmsy10-medium-r-normal--25-240-75-75-p-143-metafont-fontspecific
SIZE 25 75 75
FONTBOUNDINGBOX 27 43 -1 -24
STARTPROPERTIES 22
FONT_ASCENT 19
FONT_DESCENT 6
DEFAULT_CHAR 65
FOUNDRY "metafont"
FAMILY_NAME "cmsy10"
WEIGHT_NAME "medium"
SLANT "r"
SETWIDTH_NAME "normal"
ADD_STYLE_NAME ""
PIXEL_SIZE 25
POINT_SIZE 240
RESOLUTION_X 75
RESOLUTION_Y 75
SPACING "P"
AVERAGE_WIDTH 143
CHARSET_REGISTRY "Metafont"
CHARSET_ENCODING "FONTSPECIFIC"
AVG_CAPITAL_WIDTH 34
AVG_LOWERCASE_WIDTH 19
COPYRIGHT "Metafont (public domain)"
FULLNAME "cmsy10"
DEVICE_FONT_NAME "cmsy10"
ENDPROPERTIES
CHARS 128
STARTCHAR Gamma
ENCODING 0
SWIDTH 757 0
DWIDTH 19 0
BBX 14 1 2 6
BITMAP
fffc
ENDCHAR
STARTCHAR Delta
ENCODING 1
SWIDTH 279 0
DWIDTH 7 0
BBX 3 3 2 5
BITMAP
40
e0
40
ENDCHAR
STARTCHAR Theta
ENCODING 2
SWIDTH 757 0
DWIDTH 19 0
BBX 12 13 3 0
BITMAP
8010
4020
2040
1080
0900
0600
0400
0600
0900
1080
2040
4020
8010
ENDCHAR
STARTCHAR Lamdba
ENCODING 3
SWIDTH 478 0
DWIDTH 12 0
BBX 9 11 1 1
BITMAP
0800
0800
8880
eb80
7f00
1c00
7f00
eb80
8880
0800
0800
ENDCHAR
STARTCHAR Xi
ENCODING 4
SWIDTH 797 0
DWIDTH 20 0
BBX 17 15 1 -1
BITMAP
008000
01c000
008000
000000
000000
000000
000000
ffff80
000000
000000
000000
000000
008000
01c000
008000
ENDCHAR
STARTCHAR Pi
ENCODING 5
SWIDTH 478 0
DWIDTH 12 0
BBX 11 11 0 1
BITMAP
0400
0a00
1100
2080
4040
8020
4040
2080
1100
0a00
0400
ENDCHAR
STARTCHAR Sigma
ENCODING 6
SWIDTH 757 0
DWIDTH 19 0
BBX 16 17 1 0
BITMAP
0080
0080
0080
0080
0080
0080
0080
0080
ffff
0080
0080
0080
0080
0080
0080
0080
ffff
ENDCHAR
STARTCHAR Upsilon
ENCODING 7
SWIDTH 757 0
DWIDTH 19 0
BBX 16 17 1 -4
BITMAP
ffff
0080
0080
0080
0080
0080
0080
0080
ffff
0080
0080
0080
0080
0080
0080
0080
0080
ENDCHAR
STARTCHAR Phi
ENCODING 8
SWIDTH 757 0
DWIDTH 19 0
BBX 16 17 1 -2
BITMAP
03c0
0cb0
1088
2084
4082
4082
8081
8081
ffff
8081
8081
4082
4082
2084
1088
0cb0
03c0
ENDCHAR
STARTCHAR Psi
ENCODING 9
SWIDTH 757 0
DWIDTH 19 0
BBX 16 17 1 -2
BITMAP
03c0
0c30
1008
2004
4002
4002
8001
8001
ffff
8001
8001
4002
4002
2004
1008
0c30
03c0
ENDCHAR
STARTCHAR Omega
ENCODING 10
SWIDTH 757 0
DWIDTH 19 0
BBX 16 17 1 -2
BITMAP
03c0
0c30
1008
300c
4812
4422
8241
8181
8101
8181
8241
4422
4812
300c
1008
0c30
03c0
ENDCHAR
STARTCHAR arrowup
ENCODING 11
SWIDTH 757 0
DWIDTH 19 0
BBX 16 17 1 -2
BITMAP
03c0
0c30
1008
200c
4012
4022
8041
8081
8101
8101
8201
4402
4802
3004
1008
0c30
03c0
ENDCHAR
STARTCHAR arrowdown
ENCODING 12
SWIDTH 757 0
DWIDTH 19 0
BBX 16 17 1 -2
BITMAP
03c0
0c30
1008
2004
4002
4002
8001
83c1
83c1
83c1
8001
4002
4002
2004
1008
0c30
03c0
ENDCHAR
STARTCHAR quotesingle
ENCODING 13
SWIDTH 997 0
DWIDTH 25 0
BBX 22 22 1 -5
BITMAP
00fc00
070380
080040
100020
200010
400008
400008
400008
800004
800004
800004
800004
800004
800004
400008
400008
400008
200010
100020
080040
070380
00fc00
ENDCHAR
STARTCHAR exclamdown
ENCODING 14
SWIDTH 478 0
DWIDTH 12 0
BBX 9 9 1 2
BITMAP
3e00
4100
8080
8080
8080
8080
8080
4100
3e00
ENDCHAR
STARTCHAR questiondown
ENCODING 15
SWIDTH 478 0
DWIDTH 12 0
BBX 9 9 1 2
BITMAP
3e00
7f00
ff80
ff80
ff80
ff80
ff80
7f00
3e00
ENDCHAR
STARTCHAR dotlessi
ENCODING 16
SWIDTH 757 0
DWIDTH 19 0
BBX 16 13 1 0
BITMAP
8001
4002
2004
1818
07e0
0000
0000
0000
07e0
1818
2004
4002
8001
ENDCHAR
STARTCHAR dotlessj
ENCODING 17
SWIDTH 757 0
DWIDTH 19 0
BBX 16 11 1 1
BITMAP
ffff
0000
0000
0000
0000
ffff
0000
0000
0000
0000
ffff
ENDCHAR
STARTCHAR grave
ENCODING 18
SWIDTH 757 0
DWIDTH 19 0
BBX 14 20 2 -4
BITMAP
07fc
1800
2000
4000
4000
8000
8000
8000
8000
8000
4000
4000
2000
1800
07fc
0000
0000
0000
0000
fffc
ENDCHAR
STARTCHAR acute
ENCODING 19
SWIDTH 757 0
DWIDTH 19 0
BBX 14 20 2 -4
BITMAP
ff80
0060
0010
0008
0008
0004
0004
0004
0004
0004
0008
0008
0010
0060
ff80
0000
0000
0000
0000
fffc
ENDCHAR
STARTCHAR caron
ENCODING 20
SWIDTH 757 0
DWIDTH 19 0
BBX 14 20 2 -4
BITMAP
0004
0018
0060
0180
0600
1800
6000
8000
6000
1800
0600
0180
0060
0018
0004
0000
0000
0000
0000
fffc
ENDCHAR
STARTCHAR breve
ENCODING 21
SWIDTH 757 0
DWIDTH 19 0
BBX 14 20 2 -4
BITMAP
8000
6000
1800
0600
0180
0060
0018
0004
0018
0060
0180
0600
1800
6000
8000
0000
0000
0000
0000
fffc
ENDCHAR
STARTCHAR macron
ENCODING 22
SWIDTH 757 0
DWIDTH 19 0
BBX 14 20 2 -4
BITMAP
0004
0004
0008
0008
0010
0060
0380
fc00
0380
0060
0010
0008
0008
0004
0004
0000
0000
0000
0000
fffc
ENDCHAR
STARTCHAR ring
ENCODING 23
SWIDTH 757 0
DWIDTH 19 0
BBX 14 20 2 -4
BITMAP
8000
8000
4000
4000
2000
1800
0700
00fc
0700
1800
2000
4000
4000
8000
8000
0000
0000
0000
0000
fffc
ENDCHAR
STARTCHAR cedilla
ENCODING 24
SWIDTH 757 0
DWIDTH 19 0
BBX 16 6 1 3
BITMAP
1c01
2201
4101
8082
8044
8038
ENDCHAR
STARTCHAR germandbls
ENCODING 25
SWIDTH 757 0
DWIDTH 19 0
BBX 16 11 1 1
BITMAP
1c01
6201
4182
8046
8038
0000
1c01
6201
4182
8046
8038
ENDCHAR
STARTCHAR ae
ENCODING 26
SWIDTH 757 0
DWIDTH 19 0
BBX 14 15 2 -1
BITMAP
07fc
1800
2000
4000
4000
8000
8000
8000
8000
8000
4000
4000
2000
1800
07fc
ENDCHAR
STARTCHAR oe
ENCODING 27
SWIDTH 757 0
DWIDTH 19 0
BBX 14 15 2 -1
BITMAP
ff80
0060
0010
0008
0008
0004
0004
0004
0004
0004
0008
0008
0010
0060
ff80
ENDCHAR
STARTCHAR oslash
ENCODING 28
SWIDTH 997 0
DWIDTH 25 0
BBX 22 17 1 -2
BITMAP
000204
000c18
003060
00c180
010200
060c00
183000
60c000
810000
60c000
183000
060c00
010200
00c180
003060
000c18
000204
ENDCHAR
STARTCHAR AE
ENCODING 29
SWIDTH 997 0
DWIDTH 25 0
BBX 22 17 1 -2
BITMAP
810000
60c000
183000
060c00
010200
00c180
003060
000c18
000204
000c18
003060
00c180
010200
060c00
183000
60c000
810000
ENDCHAR
STARTCHAR OE
ENCODING 30
SWIDTH 757 0
DWIDTH 19 0
BBX 14 15 2 -2
BITMAP
0004
0004
0008
0008
0010
0060
0380
fc00
0380
0060
0010
0008
0008
0004
0004
ENDCHAR
STARTCHAR Oslash
ENCODING 31
SWIDTH 757 0
DWIDTH 19 0
BBX 14 15 2 -2
BITMAP
8000
8000
4000
4000
2000
1800
0700
00fc
0700
1800
2000
4000
4000
8000
8000
ENDCHAR
STARTCHAR tilde
ENCODING 32
SWIDTH 997 0
DWIDTH 25 0
BBX 22 9 1 2
BITMAP
080000
080000
100000
200000
fffffc
200000
100000
080000
080000
ENDCHAR
STARTCHAR exclam
ENCODING 33
SWIDTH 997 0
DWIDTH 25 0
BBX 22 9 1 2
BITMAP
000040
000040
000020
000010
fffffc
000010
000020
000040
000040
ENDCHAR
STARTCHAR quotedblright
ENCODING 34
SWIDTH 478 0
DWIDTH 12 0
BBX 9 22 1 -5
BITMAP
0800
0800
1c00
2a00
c980
0800
0800
0800
0800
0800
0800
0800
0800
0800
0800
0800
0800
0800
0800
0800
0800
0800
ENDCHAR
STARTCHAR numbersign
ENCODING 35
SWIDTH 478 0
DWIDTH 12 0
BBX 9 22 1 -5
BITMAP
0800
0800
0800
0800
0800
0800
0800
0800
0800
0800
0800
0800
0800
0800
0800
0800
0800
c980
2a00
1c00
0800
0800
ENDCHAR
STARTCHAR dollar
ENCODING 36
SWIDTH 997 0
DWIDTH 25 0
BBX 22 9 1 2
BITMAP
080040
080040
100020
200010
fffffc
200010
100020
080040
080040
ENDCHAR
STARTCHAR percent
ENCODING 37
SWIDTH 997 0
DWIDTH 25 0
BBX 22 22 1 -5
BITMAP
00018c
00007c
000018
000028
000048
000084
000104
000200
000400
000800
001000
002000
004000
008000
010000
020000
040000
080000
100000
200000
400000
800000
ENDCHAR
STARTCHAR ampersand
ENCODING 38
SWIDTH 997 0
DWIDTH 25 0
BBX 22 22 1 -5
BITMAP
800000
400000
200000
100000
080000
040000
020000
010000
008000
004000
002000
001000
000800
000400
000200
000104
000084
000048
000028
000018
00007c
00018c
ENDCHAR
STARTCHAR quoteright
ENCODING 39
SWIDTH 757 0
DWIDTH 19 0
BBX 16 11 1 1
BITMAP
1c01
2201
4101
8082
8044
8038
0000
0000
0000
0000
ffff
ENDCHAR
STARTCHAR parenleft
ENCODING 40
SWIDTH 997 0
DWIDTH 25 0
BBX 22 13 1 0
BITMAP
008000
010000
010000
03fffc
0c0000
300000
c00000
300000
0c0000
03fffc
010000
010000
008000
ENDCHAR
STARTCHAR parenright
ENCODING 41
SWIDTH 997 0
DWIDTH 25 0
BBX 22 13 1 0
BITMAP
000400
000200
000200
ffff00
0000c0
000030
00000c
000030
0000c0
ffff00
000200
000200
000400
ENDCHAR
STARTCHAR asterisk
ENCODING 42
SWIDTH 598 0
DWIDTH 15 0
BBX 13 22 1 -5
BITMAP
0200
0200
0500
0500
0880
1040
3060
5050
9048
1040
1040
1040
1040
1040
1040
1040
1040
1040
1040
1040
1040
1040
ENDCHAR
STARTCHAR plus
ENCODING 43
SWIDTH 598 0
DWIDTH 15 0
BBX 13 22 1 -5
BITMAP
1040
1040
1040
1040
1040
1040
1040
1040
1040
1040
1040
1040
1040
9048
5050
3060
1040
0880
0500
0500
0200
0200
ENDCHAR
STARTCHAR comma
ENCODING 44
SWIDTH 997 0
DWIDTH 25 0
BBX 22 13 1 0
BITMAP
010200
020100
040080
07ff80
180060
200010
c0000c
200010
180060
07ff80
040080
020100
010200
ENDCHAR
STARTCHAR hyphen
ENCODING 45
SWIDTH 997 0
DWIDTH 25 0
BBX 22 22 1 -5
BITMAP
c60000
f80000
600000
500000
480000
840000
820000
010000
008000
004000
002000
001000
000800
000400
000200
000100
000080
000040
000020
000010
000008
000004
ENDCHAR
STARTCHAR period
ENCODING 46
SWIDTH 997 0
DWIDTH 25 0
BBX 22 22 1 -5
BITMAP
000004
000008
000010
000020
000040
000080
000100
000200
000400
000800
001000
002000
004000
008000
010000
820000
840000
480000
500000
600000
f80000
c60000
ENDCHAR
STARTCHAR slash
ENCODING 47
SWIDTH 757 0
DWIDTH 19 0
BBX 15 11 1 0
BITMAP
1c06
6718
4390
81a0
80e0
80e0
80e0
80b0
4138
631c
3c06
ENDCHAR
STARTCHAR 0
ENCODING 48
SWIDTH 279 0
DWIDTH 7 0
BBX 5 13 1 1
BITMAP
10
38
38
30
70
70
70
60
60
60
e0
c0
c0
ENDCHAR
STARTCHAR 1
ENCODING 49
SWIDTH 997 0
DWIDTH 25 0
BBX 22 11 1 0
BITMAP
1e01e0
378710
41cc08
80e804
807004
803004
803804
805c04
40ce08
2387b0
1e01e0
ENDCHAR
STARTCHAR 2
ENCODING 50
SWIDTH 678 0
DWIDTH 17 0
BBX 12 15 2 -1
BITMAP
07f0
1800
2000
4000
4000
8000
8000
fff0
8000
8000
4000
4000
2000
1800
07f0
ENDCHAR
STARTCHAR 3
ENCODING 51
SWIDTH 678 0
DWIDTH 17 0
BBX 12 15 2 -1
BITMAP
fe00
0180
0040
0020
0020
0010
0010
fff0
0010
0010
0020
0020
0040
0180
fe00
ENDCHAR
STARTCHAR 4
ENCODING 52
SWIDTH 877 0
DWIDTH 22 0
BBX 19 17 1 0
BITMAP
004000
00a000
00a000
011000
011000
020800
020800
040400
080200
080200
100100
100100
200080
200080
400040
400040
ffffe0
ENDCHAR
STARTCHAR 5
ENCODING 53
SWIDTH 877 0
DWIDTH 22 0
BBX 19 17 1 -5
BITMAP
ffffe0
400040
400040
200080
200080
100100
100100
080200
080200
040400
020800
020800
011000
011000
00a000
00a000
004000
ENDCHAR
STARTCHAR 6
ENCODING 54
SWIDTH 0 0
DWIDTH 0 0
BBX 12 21 3 -4
BITMAP
0010
0020
0020
0040
0040
0080
0080
0100
0100
0200
0400
0400
0800
0800
1000
1000
2000
2000
4000
4000
8000
ENDCHAR
STARTCHAR 7
ENCODING 55
SWIDTH 0 0
DWIDTH 0 0
BBX 2 9 1 2
BITMAP
80
80
80
80
c0
80
80
80
80
ENDCHAR
STARTCHAR 8
ENCODING 56
SWIDTH 558 0
DWIDTH 14 0
BBX 13 17 0 0
BITMAP
8008
8008
4010
4010
4010
3fe0
2020
1040
1040
1040
0880
0880
0880
0500
0500
0200
0200
ENDCHAR
STARTCHAR 9
ENCODING 57
SWIDTH 558 0
DWIDTH 14 0
BBX 11 17 1 0
BITMAP
ffe0
0020
0020
0020
0020
0020
0020
0020
ffe0
0020
0020
0020
0020
0020
0020
0020
ffe0
ENDCHAR
STARTCHAR colon
ENCODING 58
SWIDTH 678 0
DWIDTH 17 0
BBX 14 7 1 2
BITMAP
fffc
0004
0004
0004
0004
0004
0004
ENDCHAR
STARTCHAR semicolon
ENCODING 59
SWIDTH 478 0
DWIDTH 12 0
BBX 9 20 1 -1
BITMAP
0200
0200
1e00
2600
4500
4500
c580
c580
c980
c980
c980
c980
d180
d180
d180
5100
7300
2200
3c00
2000
ENDCHAR
STARTCHAR less
ENCODING 60
SWIDTH 717 0
DWIDTH 18 0
BBX 16 17 1 0
BITMAP
3870
4db8
8718
860c
460e
2606
1703
1706
17f8
b730
6730
0630
0630
0630
c630
4433
381c
ENDCHAR
STARTCHAR equal
ENCODING 61
SWIDTH 717 0
DWIDTH 18 0
BBX 15 17 1 0
BITMAP
1f00
21c0
4072
801c
8000
8000
401c
2032
1c32
0030
0030
0018
e018
380c
0c18
0738
03e0
ENDCHAR
STARTCHAR greater
ENCODING 62
SWIDTH 797 0
DWIDTH 20 0
BBX 17 17 1 0
BITMAP
ffff80
008000
008000
008000
008000
008000
008000
008000
008000
008000
008000
008000
008000
008000
008000
008000
008000
ENDCHAR
STARTCHAR question
ENCODING 63
SWIDTH 797 0
DWIDTH 20 0
BBX 17 17 1 0
BITMAP
008000
008000
008000
008000
008000
008000
008000
008000
008000
008000
008000
008000
008000
008000
008000
008000
ffff80
ENDCHAR
STARTCHAR at
ENCODING 64
SWIDTH 598 0
DWIDTH 15 0
BBX 12 17 1 0
BITMAP
8100
c180
c0c0
6060
3070
1850
1840
2c80
2680
6380
6180
6180
60c0
3060
3030
1830
f010
ENDCHAR
STARTCHAR A
ENCODING 65
SWIDTH 797 0
DWIDTH 20 0
BBX 18 19 0 -1
BITMAP
000300
000700
000700
000b00
000b00
001300
001300
002300
002300
004300
004300
008300
01ff00
010300
020300
060300
cc0380
7801c0
300000
ENDCHAR
STARTCHAR B
ENCODING 66
SWIDTH 638 0
DWIDTH 16 0
BBX 15 17 1 0
BITMAP
0c7c
1c8e
0d06
0e06
0c04
1c08
1870
19f0
1838
101c
300c
300c
300c
2008
6010
5860
df80
ENDCHAR
STARTCHAR C
ENCODING 67
SWIDTH 518 0
DWIDTH 13 0
BBX 12 17 1 0
BITMAP
01f0
0630
0830
1020
3060
2040
6000
6000
4000
c000
c000
c000
c000
c060
e040
7180
3e00
ENDCHAR
STARTCHAR D
ENCODING 68
SWIDTH 757 0
DWIDTH 19 0
BBX 16 17 1 0
BITMAP
0ff8
331c
430e
c307
0303
0203
0603
0603
0603
0402
0c06
0c04
0808
1810
1820
11c0
3e00
ENDCHAR
STARTCHAR E
ENCODING 69
SWIDTH 518 0
DWIDTH 13 0
BBX 12 17 1 0
BITMAP
01f0
0630
0830
1820
1800
1800
1e00
0700
0800
1000
2000
4000
c000
c060
c040
e180
7e00
ENDCHAR
STARTCHAR F
ENCODING 70
SWIDTH 717 0
DWIDTH 18 0
BBX 19 17 0 0
BITMAP
01ffe0
062060
0c6000
086000
006000
004000
00c000
00c000
00fe00
018000
010000
030000
030000
020000
060000
e40000
780000
ENDCHAR
STARTCHAR G
ENCODING 71
SWIDTH 598 0
DWIDTH 15 0
BBX 13 19 1 -2
BITMAP
01f8
0618
0818
1010
2020
6060
4000
c000
c010
c030
c020
c060
e0e0
7160
3e40
00c0
0080
4100
fe00
ENDCHAR
STARTCHAR H
ENCODING 72
SWIDTH 837 0
DWIDTH 21 0
BBX 18 18 1 -1
BITMAP
1f0040
230080
430180
c30180
030100
020300
060300
07fe00
060600
040600
0c0400
0c0c00
080c00
180c00
180c00
100c80
300d00
000e00
ENDCHAR
STARTCHAR I
ENCODING 73
SWIDTH 558 0
DWIDTH 14 0
BBX 15 17 0 0
BITMAP
0ffe
3040
6080
4180
0180
0100
0300
0300
0300
0200
0600
0600
0400
0c00
0820
1860
ff80
ENDCHAR
STARTCHAR J
ENCODING 74
SWIDTH 678 0
DWIDTH 17 0
BBX 19 19 1 -2
BITMAP
001fe0
006100
008300
010200
020600
060400
000c00
000c00
000800
001800
001800
001800
001000
003000
203000
402000
e04000
718000
3e0000
ENDCHAR
STARTCHAR K
ENCODING 75
SWIDTH 757 0
DWIDTH 19 0
BBX 16 17 1 0
BITMAP
0c07
1c1b
0c60
0c80
0d00
0a00
1e00
1e00
1e00
1700
3300
3380
2180
61c1
60c2
40e6
c078
ENDCHAR
STARTCHAR L
ENCODING 76
SWIDTH 678 0
DWIDTH 17 0
BBX 15 17 1 0
BITMAP
0078
009c
010c
0308
0200
0600
0400
0c00
0c00
0c00
0800
1800
1000
3006
3e04
6788
c1f0
ENDCHAR
STARTCHAR M
ENCODING 77
SWIDTH 1196 0
DWIDTH 30 0
BBX 26 18 0 -1
BITMAP
00400040
00c00040
00e000c0
00e001c0
00e003c0
016006c0
01600cc0
01700880
02301180
02303180
02306180
0438c180
04198180
041f0180
080e0180
980c0180
f00001c0
60000000
ENDCHAR
STARTCHAR N
ENCODING 78
SWIDTH 797 0
DWIDTH 20 0
BBX 25 20 -1 -1
BITMAP
00000780
00000f00
00c01800
01c01000
01c01000
01e02000
01602000
01602000
01702000
02304000
02304000
02384000
02188000
04188000
041c8000
040c8000
080f0000
88070000
f0070000
70000000
ENDCHAR
STARTCHAR O
ENCODING 79
SWIDTH 797 0
DWIDTH 20 0
BBX 17 17 1 0
BITMAP
023e00
044700
088380
110180
230180
620180
600180
400180
c00100
c00300
c00300
c00200
c00400
e00800
701000
386000
1f8000
ENDCHAR
STARTCHAR P
ENCODING 80
SWIDTH 678 0
DWIDTH 17 0
BBX 16 18 1 -1
BITMAP
0ff8
331e
4307
c303
0303
0203
0602
0606
0604
0408
0c30
0dc0
0c00
0800
1800
1000
3000
2000
ENDCHAR
STARTCHAR Q
ENCODING 81
SWIDTH 797 0
DWIDTH 20 0
BBX 16 19 3 -2
BITMAP
01f8
061c
080c
100e
2006
6006
4006
c006
c004
c00c
c00c
e008
7190
3e20
0040
0180
7e01
0f82
01fc
ENDCHAR
STARTCHAR R
ENCODING 82
SWIDTH 837 0
DWIDTH 21 0
BBX 18 17 1 0
BITMAP
0ffc00
330f00
430300
c30300
030300
020200
060600
060400
061800
04e000
0c6000
0c7000
083000
183800
181840
101c80
300f00
ENDCHAR
STARTCHAR S
ENCODING 83
SWIDTH 598 0
DWIDTH 15 0
BBX 15 17 0 0
BITMAP
00fc
030e
0406
0c04
0c00
0e00
0700
03c0
00e0
0070
0038
2018
4018
c010
e020
70c0
3f00
ENDCHAR
STARTCHAR T
ENCODING 84
SWIDTH 558 0
DWIDTH 14 0
BBX 18 18 1 0
BITMAP
000040
0fff80
302000
206000
404000
c0c000
00c000
00c000
008000
018000
018000
018000
010000
030000
020000
060000
040000
3f8000
ENDCHAR
STARTCHAR U
ENCODING 85
SWIDTH 638 0
DWIDTH 16 0
BBX 16 17 0 0
BITMAP
3c01
4c03
0c02
0806
1806
180c
100c
301c
2018
6038
6038
4058
c090
c130
c230
e430
7838
ENDCHAR
STARTCHAR V
ENCODING 86
SWIDTH 598 0
DWIDTH 15 0
BBX 14 18 2 -1
BITMAP
e018
701c
3004
3004
3804
1804
1808
1818
1810
1820
1860
18c0
1980
1b00
1e00
1c00
1800
1000
ENDCHAR
STARTCHAR W
ENCODING 87
SWIDTH 997 0
DWIDTH 25 0
BBX 23 18 2 -1
BITMAP
e00c04
700c06
301c02
381e02
182602
182602
184604
18c704
188308
190308
1b0310
1a0330
1c0320
1c0340
3803c0
300380
200300
200200
ENDCHAR
STARTCHAR X
ENCODING 88
SWIDTH 717 0
DWIDTH 18 0
BBX 18 17 2 0
BITMAP
0381c0
05c0c0
00c0c0
00c080
00c300
00c400
00d800
00e000
00c000
01c000
06c000
08c000
30e000
406000
c06000
c06400
c07800
ENDCHAR
STARTCHAR Y
ENCODING 89
SWIDTH 678 0
DWIDTH 17 0
BBX 16 20 0 -3
BITMAP
1e06
2707
0301
0381
0181
0181
0182
01c2
00c4
00c4
00c8
00d8
00f0
00e0
01c0
0180
8300
c600
7c00
3800
ENDCHAR
STARTCHAR Z
ENCODING 90
SWIDTH 717 0
DWIDTH 18 0
BBX 16 17 2 0
BITMAP
03f1
043e
0804
1008
0010
0030
0020
07f0
00b0
0100
0200
0400
0804
100c
2008
7e10
87e0
ENDCHAR
STARTCHAR bracketleft
ENCODING 91
SWIDTH 678 0
DWIDTH 17 0
BBX 14 15 1 0
BITMAP
8004
8004
8004
8004
8004
8004
8004
8004
8004
8004
8004
8004
4008
3030
0fc0
ENDCHAR
STARTCHAR leftdblquote
ENCODING 92
SWIDTH 678 0
DWIDTH 17 0
BBX 14 15 1 0
BITMAP
0fc0
3030
4008
8004
8004
8004
8004
8004
8004
8004
8004
8004
8004
8004
8004
ENDCHAR
STARTCHAR bracketright
ENCODING 93
SWIDTH 678 0
DWIDTH 17 0
BBX 14 15 1 0
BITMAP
8004
8004
8104
8104
8104
8104
8104
bff4
8104
8104
8104
8104
4008
3030
0fc0
ENDCHAR
STARTCHAR circumflex
ENCODING 94
SWIDTH 678 0
DWIDTH 17 0
BBX 14 15 1 0
BITMAP
0300
0300
0300
0480
0480
0840
0840
1020
1020
2010
2010
4008
4008
8004
8004
ENDCHAR
STARTCHAR dotaccent
ENCODING 95
SWIDTH 678 0
DWIDTH 17 0
BBX 14 15 1 0
BITMAP
8004
8004
4008
4008
2010
2010
1020
1020
0840
0840
0480
0480
0300
0300
0300
ENDCHAR
STARTCHAR leftquote
ENCODING 96
SWIDTH 598 0
DWIDTH 15 0
BBX 12 17 1 0
BITMAP
8000
8000
8000
8000
8000
8000
8000
8000
fff0
8000
8000
8000
8000
8000
8000
8000
8000
ENDCHAR
STARTCHAR a
ENCODING 97
SWIDTH 598 0
DWIDTH 15 0
BBX 12 17 1 0
BITMAP
0010
0010
0010
0010
0010
0010
0010
0010
fff0
0010
0010
0010
0010
0010
0010
0010
0010
ENDCHAR
STARTCHAR b
ENCODING 98
SWIDTH 438 0
DWIDTH 11 0
BBX 6 25 4 -6
BITMAP
80
80
80
80
80
80
80
80
80
80
80
80
80
80
80
80
80
80
80
80
80
80
80
80
fc
ENDCHAR
STARTCHAR c
ENCODING 99
SWIDTH 438 0
DWIDTH 11 0
BBX 6 25 0 -6
BITMAP
04
04
04
04
04
04
04
04
04
04
04
04
04
04
04
04
04
04
04
04
04
04
04
04
fc
ENDCHAR
STARTCHAR d
ENCODING 100
SWIDTH 438 0
DWIDTH 11 0
BBX 6 25 4 -6
BITMAP
fc
80
80
80
80
80
80
80
80
80
80
80
80
80
80
80
80
80
80
80
80
80
80
80
80
ENDCHAR
STARTCHAR e
ENCODING 101
SWIDTH 438 0
DWIDTH 11 0
BBX 6 25 0 -6
BITMAP
fc
04
04
04
04
04
04
04
04
04
04
04
04
04
04
04
04
04
04
04
04
04
04
04
04
ENDCHAR
STARTCHAR f
ENCODING 102
SWIDTH 478 0
DWIDTH 12 0
BBX 7 25 2 -6
BITMAP
06
08
18
18
18
18
18
18
18
18
18
30
e0
30
18
18
18
18
18
18
18
18
18
08
06
ENDCHAR
STARTCHAR g
ENCODING 103
SWIDTH 478 0
DWIDTH 12 0
BBX 7 25 2 -6
BITMAP
e0
30
18
18
18
18
18
18
18
18
18
08
06
08
18
18
18
18
18
18
18
18
18
30
e0
ENDCHAR
STARTCHAR h
ENCODING 104
SWIDTH 398 0
DWIDTH 10 0
BBX 6 25 2 -6
BITMAP
04
04
08
08
10
10
20
20
20
40
40
80
80
80
40
40
20
20
20
10
10
08
08
04
04
ENDCHAR
STARTCHAR i
ENCODING 105
SWIDTH 398 0
DWIDTH 10 0
BBX 6 25 1 -6
BITMAP
80
80
40
40
20
20
10
10
10
08
08
04
04
04
08
08
10
10
10
20
20
40
40
80
80
ENDCHAR
STARTCHAR j
ENCODING 106
SWIDTH 279 0
DWIDTH 7 0
BBX 1 25 3 -6
BITMAP
80
80
80
80
80
80
80
80
80
80
80
80
80
80
80
80
80
80
80
80
80
80
80
80
80
ENDCHAR
STARTCHAR k
ENCODING 107
SWIDTH 478 0
DWIDTH 12 0
BBX 7 25 2 -6
BITMAP
82
82
82
82
82
82
82
82
82
82
82
82
82
82
82
82
82
82
82
82
82
82
82
82
82
ENDCHAR
STARTCHAR l
ENCODING 108
SWIDTH 478 0
DWIDTH 12 0
BBX 9 25 1 -6
BITMAP
0800
0800
1c00
2a00
c980
0800
0800
0800
0800
0800
0800
0800
0800
0800
0800
0800
0800
0800
0800
0800
c980
2a00
1c00
0800
0800
ENDCHAR
STARTCHAR m
ENCODING 109
SWIDTH 598 0
DWIDTH 15 0
BBX 13 25 1 -6
BITMAP
0200
0200
0500
0880
0880
3060
5050
9048
1040
1040
1040
1040
1040
1040
1040
1040
1040
9048
5050
3060
0880
0880
0500
0200
0200
ENDCHAR
STARTCHAR n
ENCODING 110
SWIDTH 478 0
DWIDTH 12 0
BBX 9 25 1 -6
BITMAP
8000
8000
4000
4000
4000
2000
2000
2000
1000
1000
1000
0800
0800
0800
0400
0400
0400
0200
0200
0200
0100
0100
0100
0080
0080
ENDCHAR
STARTCHAR o
ENCODING 111
SWIDTH 279 0
DWIDTH 7 0
BBX 4 15 1 -1
BITMAP
c0
20
10
10
10
10
20
40
40
80
80
80
80
40
30
ENDCHAR
STARTCHAR p
ENCODING 112
SWIDTH 837 0
DWIDTH 21 0
BBX 20 25 1 -24
BITMAP
000010
000010
000020
000020
000040
000040
000080
000080
000100
000100
000200
000200
200400
f00400
300800
380800
181000
1c1000
0c2000
0e2000
064000
074000
038000
038000
010000
ENDCHAR
STARTCHAR q
ENCODING 113
SWIDTH 757 0
DWIDTH 19 0
BBX 18 17 0 0
BITMAP
fe1fc0
180600
180600
180600
180600
180600
180600
180600
180600
180600
180600
180600
180600
180600
180600
180600
ffffc0
ENDCHAR
STARTCHAR r
ENCODING 114
SWIDTH 837 0
DWIDTH 21 0
BBX 18 17 1 0
BITMAP
ffffc0
7fff80
700080
300100
300100
180200
180200
0c0400
0c0400
060800
060800
031000
031000
01a000
01a000
00c000
00c000
ENDCHAR
STARTCHAR s
ENCODING 115
SWIDTH 398 0
DWIDTH 10 0
BBX 10 22 1 -5
BITMAP
0180
02c0
02c0
0600
0600
0600
0600
0400
0c00
0c00
0c00
0c00
0c00
0c00
0800
1800
1800
1800
1800
d000
d000
6000
ENDCHAR
STARTCHAR t
ENCODING 116
SWIDTH 678 0
DWIDTH 17 0
BBX 12 15 2 0
BITMAP
8010
8010
8010
8010
8010
8010
8010
8010
8010
8010
8010
8010
8010
8010
fff0
ENDCHAR
STARTCHAR u
ENCODING 117
SWIDTH 678 0
DWIDTH 17 0
BBX 12 15 2 0
BITMAP
fff0
8010
8010
8010
8010
8010
8010
8010
8010
8010
8010
8010
8010
8010
8010
ENDCHAR
STARTCHAR v
ENCODING 118
SWIDTH 757 0
DWIDTH 19 0
BBX 15 20 2 -4
BITMAP
fffe
8000
8000
8000
8000
8000
8000
8000
8000
8000
8000
8000
8000
8000
fffe
0000
0000
0000
0000
fffc
ENDCHAR
STARTCHAR w
ENCODING 119
SWIDTH 757 0
DWIDTH 19 0
BBX 15 20 1 -4
BITMAP
fffe
0002
0002
0002
0002
0002
0002
0002
0002
0002
0002
0002
0002
0002
7ffe
0000
0000
0000
0000
7ffe
ENDCHAR
STARTCHAR x
ENCODING 120
SWIDTH 438 0
DWIDTH 11 0
BBX 6 22 2 -5
BITMAP
30
48
cc
cc
c0
c0
60
30
58
cc
cc
cc
cc
68
30
18
0c
0c
cc
cc
48
30
ENDCHAR
STARTCHAR y
ENCODING 121
SWIDTH 438 0
DWIDTH 11 0
BBX 8 22 1 -5
BITMAP
18
18
18
18
18
ff
ff
18
18
18
18
18
18
18
18
18
18
18
18
18
18
18
ENDCHAR
STARTCHAR z
ENCODING 122
SWIDTH 438 0
DWIDTH 11 0
BBX 8 22 1 -5
BITMAP
18
18
18
18
18
ff
18
18
18
18
18
00
18
18
18
18
ff
ff
18
18
18
18
ENDCHAR
STARTCHAR endash
ENCODING 123
SWIDTH 598 0
DWIDTH 15 0
BBX 12 22 1 -5
BITMAP
1ff0
3e40
7e40
fe40
fe40
fe40
fe40
fe40
fe40
7e40
3e40
0e40
0240
0240
0240
0240
0240
0240
0240
0240
0240
0240
ENDCHAR
STARTCHAR emdash
ENCODING 124
SWIDTH 797 0
DWIDTH 20 0
BBX 17 20 1 -3
BITMAP
03e000
07f000
0ff800
0ff800
0ff800
0ff800
0ff800
07f000
3bee00
7fff00
ffff80
ffff80
ffff80
ffff80
ffff80
7ebf00
3c9e00
008000
01c000
01c000
ENDCHAR
STARTCHAR quotedbl
ENCODING 125
SWIDTH 797 0
DWIDTH 20 0
BBX 16 20 2 -3
BITMAP
0100
0280
0280
0440
0440
0820
1010
2008
4004
8003
8002
4004
2008
1010
0820
0440
0440
0280
0280
0100
ENDCHAR
STARTCHAR hungarumlaut
ENCODING 126
SWIDTH 797 0
DWIDTH 20 0
BBX 17 17 1 0
BITMAP
3e3e00
414100
808080
808080
800080
800080
800080
400100
400100
200200
100400
080800
041000
022000
014000
008000
008000
ENDCHAR
STARTCHAR dieresis
ENCODING 127
SWIDTH 797 0
DWIDTH 20 0
BBX 17 20 1 -3
BITMAP
008000
01c000
01c000
03e000
07f000
0ff800
1ffc00
3ffe00
7fff00
7fff00
ffff80
ffff80
ffff80
ffff80
ffff80
7ebf00
3c9e00
008000
01c000
01c000
ENDCHAR
ENDFONT
